<?xml version="1.0" standalone="no"?>
<!DOCTYPE svg PUBLIC "-//W3C//DTD SVG 20010904//EN"
 "http://www.w3.org/TR/2001/REC-SVG-20010904/DTD/svg10.dtd">
<svg version="1.0" xmlns="http://www.w3.org/2000/svg"
 width="823.000000pt" height="823.000000pt" viewBox="0 0 823.000000 823.000000"
 preserveAspectRatio="xMidYMid meet">
<metadata>
Created by potrace 1.11, written by Peter Selinger 2001-2013
</metadata>
<g transform="translate(0.000000,823.000000) scale(0.100000,-0.100000)"
fill="#000000" stroke="none">
<path d="M4964 6968 c-5 -7 -2 -8 7 -3 8 4 3 -3 -11 -16 -14 -13 -36 -39 -49
-57 -12 -18 -26 -30 -31 -27 -4 3 -14 -3 -21 -13 -13 -16 -13 -16 6 -2 18 14
19 13 8 -1 -7 -9 -10 -18 -7 -22 3 -3 -4 -3 -17 0 -14 4 -20 2 -16 -4 4 -6 -3
-18 -16 -26 -12 -8 -32 -25 -44 -36 -13 -12 -23 -18 -23 -14 0 4 -6 -1 -13
-11 -8 -10 -24 -19 -38 -20 -15 -1 -24 -7 -23 -17 1 -8 -6 -16 -15 -17 -31 -3
-97 -31 -76 -32 18 -1 18 -2 -2 -10 -13 -5 -23 -14 -23 -19 0 -5 -9 -7 -20 -4
-12 3 -22 -1 -26 -11 -3 -9 -10 -14 -14 -11 -5 3 -16 -5 -24 -17 -9 -12 -16
-16 -16 -9 0 10 -3 11 -13 2 -8 -6 -17 -8 -20 -4 -4 3 -7 1 -7 -5 0 -6 -11 -9
-25 -6 -18 3 -25 0 -25 -11 0 -9 -4 -13 -10 -10 -5 3 -10 2 -10 -3 0 -5 -10
-12 -22 -15 -13 -2 -54 -17 -93 -32 -130 -49 -203 -73 -209 -67 -3 3 -6 0 -6
-7 0 -7 -5 -9 -10 -6 -6 3 -13 -1 -16 -10 -6 -13 -8 -14 -15 -3 -7 11 -9 11
-9 -1 0 -10 -3 -11 -14 -2 -11 9 -14 8 -12 -6 1 -14 -7 -18 -39 -18 -22 0 -44
-6 -48 -12 -13 -20 -115 -46 -161 -40 -22 3 -33 3 -23 0 24 -6 21 -20 -5 -28
-13 -3 -32 -10 -43 -15 -28 -12 -77 -24 -97 -23 -10 0 -15 -3 -13 -7 3 -4 -4
-10 -16 -13 -18 -5 -18 -3 -7 11 11 15 10 15 -8 0 -11 -10 -34 -18 -52 -20
-18 -1 -32 -7 -32 -13 0 -5 -5 -3 -11 5 -8 11 -12 12 -16 2 -2 -6 -9 -10 -14
-6 -5 3 -9 1 -9 -4 0 -5 -6 -9 -12 -9 -7 0 -24 -3 -38 -6 -64 -15 -77 -18
-103 -22 -18 -4 -26 -2 -22 5 3 5 1 10 -5 10 -7 0 -14 -9 -17 -21 -4 -16 -8
-17 -14 -7 -5 7 -9 8 -9 2 0 -5 -19 -11 -42 -13 -22 -1 -49 -6 -60 -12 -13 -7
-18 -6 -18 2 0 8 -4 8 -12 2 -21 -16 -58 -22 -58 -10 0 7 -5 4 -11 -7 -9 -15
-13 -16 -20 -5 -5 9 -9 10 -9 2 0 -12 -24 -12 -36 0 -4 4 -13 2 -21 -4 -7 -7
-23 -13 -36 -15 -12 -2 -35 -6 -52 -10 -16 -4 -44 -7 -62 -8 -18 -1 -35 -5
-39 -9 -4 -4 -39 -7 -79 -7 -39 0 -75 -4 -81 -9 -8 -8 -63 -18 -129 -24 -11
-1 -23 -6 -27 -12 -4 -5 -8 1 -8 15 -1 25 -1 25 -16 5 -8 -11 -20 -19 -25 -17
-5 1 -9 -4 -9 -10 0 -9 -4 -8 -10 2 -7 11 -10 12 -10 2 0 -10 -14 -13 -47 -12
-27 1 -50 1 -53 0 -13 -4 -50 -10 -99 -15 -30 -3 -57 -7 -59 -10 -3 -3 -11 3
-18 13 -11 14 -13 14 -14 2 0 -13 -12 -14 -71 -10 -39 3 -73 2 -75 -1 -2 -4 0
-9 6 -11 6 -1 -32 -1 -82 1 -51 1 -101 7 -110 12 -12 6 -18 6 -18 -1 0 -5 7
-10 15 -10 8 0 15 -4 15 -10 0 -6 -35 -10 -85 -10 -50 0 -85 4 -85 10 0 6 25
10 55 10 30 0 55 3 55 8 0 4 -17 6 -37 5 -43 -3 -156 -12 -222 -17 -27 -2 -38
-1 -30 5 12 7 12 10 0 21 -11 11 -13 11 -6 0 6 -11 -4 -13 -44 -11 -28 2 -54
0 -57 -4 -4 -4 -15 0 -25 9 -11 10 -19 12 -24 4 -3 -5 -12 -7 -18 -3 -7 4 -20
9 -29 10 -79 13 -112 25 -130 47 -10 11 -18 15 -18 9 0 -14 -40 -18 -40 -5 0
5 -12 14 -26 20 -20 10 -24 10 -18 0 6 -10 5 -11 -8 -1 -8 7 -18 10 -21 6 -4
-3 -7 2 -7 13 0 16 -2 17 -10 4 -8 -13 -10 -13 -10 2 0 10 -7 15 -17 14 -10
-2 -30 9 -45 25 -15 15 -30 24 -33 18 -10 -15 -25 0 -18 18 4 10 2 14 -4 10
-17 -11 -40 2 -46 25 -3 11 -10 17 -16 14 -5 -4 -32 15 -60 40 -47 43 -49 48
-33 60 16 13 16 14 0 8 -11 -4 -18 -1 -18 6 0 10 -3 10 -15 0 -17 -14 -21 -1
-5 18 6 6 7 10 4 7 -9 -6 -34 21 -34 37 0 10 -3 9 -10 -2 -5 -8 -10 -10 -10
-4 0 6 -9 21 -20 34 -11 13 -20 29 -20 36 0 12 -29 12 -49 0 -21 -13 -77 -160
-80 -208 -2 -38 -5 -48 -11 -48 -4 0 -5 -13 -2 -30 3 -20 0 -30 -8 -30 -9 0
-9 -4 -2 -13 18 -21 19 -110 2 -124 -13 -10 -13 -14 4 -26 12 -9 17 -20 13
-30 -3 -9 -3 -19 2 -21 13 -8 13 -118 1 -126 -9 -5 -9 -9 -1 -14 6 -4 11 -2
11 3 0 6 5 11 10 11 6 0 10 -9 10 -20 0 -22 26 -125 35 -140 3 -6 -2 -10 -12
-10 -17 -1 -17 -1 0 -11 9 -5 17 -17 17 -24 0 -8 5 -15 11 -15 7 0 9 -10 7
-25 -3 -14 -1 -23 6 -22 5 1 10 -14 10 -33 0 -19 5 -39 12 -45 6 -5 25 -46 42
-90 17 -44 37 -93 45 -110 30 -60 30 -72 2 -72 -16 0 -25 5 -26 16 0 14 -1 14
-7 0 -9 -20 -142 -28 -142 -8 0 8 -4 8 -13 1 -7 -6 -51 -12 -99 -14 -47 -2
-86 -5 -86 -8 0 -3 -1 -8 -2 -12 -7 -21 -4 -34 8 -47 7 -7 11 -20 8 -27 -3 -7
0 -16 6 -20 7 -4 8 -3 4 4 -4 7 -2 12 3 12 6 0 11 -7 11 -15 0 -8 3 -15 8 -15
4 0 8 -15 9 -33 2 -26 -1 -33 -16 -34 -10 -1 -33 -11 -52 -22 -27 -17 -30 -21
-14 -22 l20 0 -20 -9 c-19 -8 -19 -9 3 -9 20 -1 23 -6 22 -33 -3 -47 0 -56 10
-33 8 18 9 18 9 2 1 -10 9 -29 18 -43 13 -20 14 -27 4 -33 -10 -6 -9 -10 4
-15 9 -3 21 -4 26 0 5 3 4 -6 -3 -20 -10 -23 -25 -31 -44 -23 -4 1 -11 -9 -15
-22 -6 -14 -15 -21 -23 -18 -20 8 -45 -23 -43 -55 1 -14 5 -24 10 -21 4 2 7
-3 7 -12 0 -9 4 -14 9 -10 5 3 13 0 17 -6 4 -8 3 -9 -4 -5 -7 4 -12 2 -12 -3
0 -6 8 -11 18 -11 14 0 15 -2 2 -10 -13 -8 -13 -10 2 -10 9 0 20 -5 24 -12 5
-7 3 -8 -5 -3 -9 5 -9 1 1 -14 7 -12 16 -21 21 -21 4 0 6 -4 2 -9 -3 -5 -1
-12 5 -16 16 -10 12 -25 -6 -25 -10 0 -14 6 -11 15 4 8 2 17 -4 20 -5 4 -9 -9
-8 -32 2 -62 -1 -93 -9 -90 -4 1 -9 -2 -12 -8 -7 -14 31 -13 57 2 17 10 23 10
26 0 4 -9 6 -9 6 1 1 6 6 12 12 12 5 0 7 -5 3 -12 -5 -7 -2 -9 7 -6 9 4 14 -2
15 -18 2 -21 -6 -27 -32 -23 -4 0 -11 -5 -15 -13 -7 -10 -9 -10 -9 0 0 6 -4
12 -8 12 -16 0 -9 -27 11 -39 10 -7 17 -9 14 -4 -3 5 5 9 18 9 14 0 21 -4 17
-10 -4 -8 -1 -8 9 -1 28 20 54 12 55 -17 1 -25 -1 -26 -29 -21 -25 5 -29 3
-24 -9 3 -9 0 -21 -6 -27 -6 -6 -9 -11 -7 -12 46 -8 63 -9 56 -2 -4 4 -12 8
-18 8 -6 0 -12 7 -14 16 -1 11 4 16 15 14 9 -2 21 -4 26 -4 6 -1 3 -6 -5 -11
-10 -6 -11 -10 -2 -10 6 0 12 -9 12 -20 0 -11 5 -20 10 -20 6 0 10 -9 10 -20
0 -11 5 -20 11 -20 5 0 7 -5 4 -10 -4 -6 4 -6 19 1 13 7 32 9 40 6 19 -7 22
-38 4 -33 -7 1 -10 1 -5 -1 15 -9 7 -22 -10 -16 -14 5 -13 3 3 -13 10 -11 21
-16 22 -12 2 5 7 6 11 4 4 -3 8 1 8 9 0 8 -5 11 -10 8 -6 -4 -7 -1 -2 7 6 10
12 7 26 -11 19 -25 22 -38 22 -99 0 -19 2 -29 4 -22 7 18 53 15 53 -3 0 -8 5
-15 10 -15 6 0 10 -4 10 -8 0 -5 -7 -9 -15 -9 -8 0 -12 4 -9 8 2 4 -1 11 -7
14 -7 5 -10 0 -7 -11 2 -11 12 -19 24 -19 23 0 54 -22 54 -38 0 -5 9 -18 21
-27 11 -10 21 -28 22 -39 1 -12 5 -21 10 -21 4 0 5 -5 1 -12 -4 -7 -3 -8 4 -4
6 4 19 -6 29 -21 10 -15 26 -37 35 -47 10 -11 18 -24 18 -29 0 -4 7 -16 16
-24 13 -13 13 -17 2 -24 -11 -7 -11 -9 0 -9 8 0 10 -5 6 -12 -6 -10 -5 -10 8
-1 19 16 32 5 16 -14 -9 -11 -8 -13 3 -11 8 2 17 7 21 13 4 5 5 -7 4 -27 -2
-23 1 -35 8 -32 6 2 21 -14 33 -35 26 -45 28 -55 11 -45 -10 6 -10 5 -1 -8 7
-8 9 -18 5 -23 -4 -4 3 -2 15 4 20 10 22 9 16 -5 -4 -12 -3 -15 5 -10 11 6 18
-20 13 -47 -1 -5 3 -6 8 -3 13 8 51 -33 45 -48 -3 -7 2 -19 11 -26 8 -7 15
-25 15 -41 0 -19 6 -30 20 -34 11 -3 20 -11 20 -16 0 -6 6 -7 13 -3 8 5 8 3
-2 -9 -11 -14 -11 -18 3 -23 11 -4 15 -13 11 -25 -5 -13 -1 -19 10 -19 8 0 20
-12 26 -27 6 -16 18 -36 26 -45 9 -10 12 -18 7 -18 -5 0 -4 -4 1 -8 18 -12 34
-59 29 -83 -4 -21 -3 -22 5 -4 8 19 9 18 22 -10 8 -16 16 -32 19 -35 13 -13
50 -89 50 -104 0 -9 7 -19 15 -22 8 -4 12 -10 9 -15 -3 -5 0 -9 5 -9 6 0 11
-6 11 -14 0 -8 6 -17 13 -19 9 -4 9 -6 -1 -6 -10 -1 -10 -4 0 -15 7 -8 16 -12
19 -10 3 2 6 -3 6 -11 0 -8 -5 -11 -11 -8 -6 3 -1 -5 12 -19 17 -19 20 -27 10
-31 -8 -4 -7 -6 5 -6 11 -1 15 -6 11 -12 -3 -6 -1 -15 5 -19 7 -4 13 -16 14
-28 0 -11 5 -18 9 -16 4 3 8 -2 8 -10 0 -9 5 -16 11 -16 5 0 7 6 3 13 -5 8 -2
8 9 -2 18 -15 23 -26 7 -16 -5 3 -10 -3 -10 -14 0 -12 6 -21 13 -21 8 0 7 -4
-3 -10 -13 -8 -12 -10 3 -10 10 0 22 -11 27 -24 5 -13 13 -27 19 -30 6 -4 16
-25 22 -46 7 -22 16 -40 21 -40 5 0 6 5 2 12 -4 7 -3 8 5 4 6 -4 9 -11 6 -16
-3 -4 22 -48 55 -96 33 -49 58 -94 56 -100 -3 -7 4 -20 15 -30 10 -9 19 -14
19 -9 0 4 21 -21 47 -56 25 -35 49 -65 54 -67 4 -2 4 -13 1 -25 -5 -20 -4 -20
11 -8 9 7 18 11 18 7 1 -3 2 -12 3 -18 1 -7 8 -12 15 -10 7 1 10 -2 6 -8 -3
-5 -1 -18 4 -27 6 -10 11 -13 11 -6 0 6 15 -3 33 -20 18 -18 32 -33 31 -35 -6
-10 38 -42 48 -36 7 5 9 2 5 -9 -3 -9 0 -18 9 -21 9 -4 12 -11 8 -18 -5 -8 0
-7 11 2 17 14 17 13 10 -9 -5 -15 -4 -21 3 -17 14 8 139 -87 134 -102 -2 -8 3
-10 14 -5 13 5 15 3 9 -8 -7 -11 -6 -12 6 -2 12 10 18 9 32 -7 9 -11 24 -20
32 -20 8 0 15 -4 15 -8 0 -4 25 -19 55 -32 30 -13 55 -28 55 -32 0 -4 9 -8 19
-8 11 0 23 -5 27 -11 5 -8 8 -8 13 0 5 7 14 4 29 -9 11 -11 35 -20 52 -20 16
0 30 -4 30 -10 0 -6 35 -10 86 -10 47 0 83 -4 80 -9 -3 -4 9 -6 27 -4 40 6 43
6 92 -2 82 -14 227 -7 258 12 6 4 25 7 43 9 41 2 68 11 130 41 28 13 62 25 75
26 23 1 56 34 51 50 -1 5 3 5 9 1 7 -4 18 1 26 11 7 11 13 15 13 11 0 -5 6 -3
14 4 8 6 12 18 9 26 -3 10 0 12 10 9 8 -4 30 8 52 30 29 26 41 32 47 23 6 -11
8 -10 8 0 0 8 5 10 13 6 8 -5 8 -3 -2 9 -11 15 -11 18 7 24 12 5 21 11 21 16
1 4 4 7 7 6 4 0 11 5 15 13 7 10 9 10 9 0 0 -7 5 -10 10 -7 6 4 8 10 5 15 -6
9 23 22 35 15 8 -5 36 22 42 40 2 6 11 9 21 9 13 -1 15 2 7 11 -8 9 -8 15 0
20 5 3 10 1 10 -5 0 -6 4 -9 10 -5 5 3 7 12 4 19 -3 8 0 17 7 22 8 5 10 3 4
-7 -7 -11 -6 -12 7 -2 8 7 19 9 23 5 5 -4 5 1 2 10 -3 10 -2 20 3 23 6 4 10 0
10 -7 0 -10 2 -10 9 1 5 8 14 10 21 6 9 -5 11 -4 6 3 -4 7 -3 12 2 12 5 0 15
11 22 25 7 14 15 23 18 20 3 -2 -1 -13 -9 -22 -13 -16 -12 -17 4 -4 9 7 17 19
17 27 0 18 31 26 93 23 28 -1 61 2 72 8 11 6 38 16 60 23 22 7 45 17 50 24 6
6 19 12 30 12 11 0 19 6 17 13 -2 8 3 11 12 8 8 -3 17 -1 20 6 3 9 5 9 5 0 1
-7 6 -13 12 -13 5 0 8 3 6 8 -3 4 1 12 8 19 11 10 15 10 19 0 2 -7 8 -2 12 12
7 23 8 23 22 5 13 -16 14 -17 9 -1 -5 12 -1 17 13 17 11 0 20 5 20 11 0 5 4 8
9 4 5 -3 12 -1 15 3 3 5 18 7 32 4 18 -3 25 -1 20 6 -3 6 -1 14 5 18 8 4 9 3
5 -4 -4 -7 -1 -12 9 -12 9 0 14 4 11 9 -3 5 1 11 9 15 8 3 15 0 15 -7 0 -8 4
-7 10 3 5 8 12 11 16 8 3 -4 13 -1 21 7 15 15 48 21 39 7 -6 -10 86 -9 103 2
11 7 13 5 8 -7 -4 -11 -2 -14 9 -10 10 4 12 9 4 18 -5 6 -8 14 -5 17 3 2 -8 4
-25 4 -16 0 -27 -3 -24 -8 3 -5 11 -5 17 -2 7 4 8 3 4 -2 -12 -12 -66 -13 -74
-1 -3 6 -1 7 5 3 5 -3 13 0 15 6 4 10 6 10 6 1 1 -7 6 -13 12 -13 5 0 8 4 5 9
-8 13 20 33 48 35 13 0 22 4 19 8 -4 7 20 12 40 9 4 0 7 5 7 12 0 9 3 8 9 -2
7 -11 11 -9 21 9 10 18 14 20 21 9 7 -12 9 -12 9 0 0 8 3 12 6 8 4 -3 13 0 20
8 8 8 22 11 31 8 11 -4 14 -3 9 5 -5 8 -2 10 8 6 9 -3 16 -1 16 6 0 6 5 8 10
5 6 -3 10 -1 10 5 0 7 7 9 16 6 8 -3 12 -2 9 4 -3 6 5 11 19 11 39 2 44 3 53
13 4 5 3 7 -3 3 -6 -3 -11 0 -11 8 0 12 3 12 14 3 11 -9 17 -8 24 3 5 8 9 11
9 6 0 -4 11 0 25 9 14 9 25 12 25 6 0 -5 7 -13 16 -16 14 -5 15 -4 4 9 -8 9
-8 15 -2 15 6 0 9 10 7 22 -3 15 -1 18 6 11 8 -8 16 -7 30 5 20 18 38 22 89
24 20 1 34 -3 33 -9 -2 -12 10 -11 39 1 10 5 15 17 13 31 -1 14 2 22 6 19 5
-3 18 0 30 7 17 9 20 8 14 -3 -6 -10 -5 -11 6 0 7 6 22 12 33 12 18 0 19 2 6
11 -12 9 -11 10 7 6 15 -3 29 4 45 21 18 21 19 23 3 12 -11 -8 -23 -19 -27
-25 -4 -5 -8 -6 -8 -1 0 15 47 53 64 50 9 -1 18 2 22 7 3 5 13 5 24 -1 20 -11
50 -4 50 12 0 6 -8 5 -17 -3 -15 -11 -16 -11 -6 1 16 17 45 23 37 7 -3 -7 1
-4 9 6 11 14 16 15 20 5 4 -10 6 -10 6 0 1 6 8 12 17 12 9 0 12 5 8 13 -5 7 0
6 11 -3 10 -8 16 -10 13 -5 -4 6 5 15 18 22 13 6 22 7 18 2 -3 -5 2 -9 11 -9
9 0 14 4 11 8 -3 4 11 9 30 9 19 1 34 -3 34 -9 0 -5 6 -8 13 -5 6 2 19 0 29
-4 13 -7 16 -4 14 15 -2 12 -6 28 -9 34 -5 6 1 8 15 4 13 -3 19 -1 15 5 -4 6
1 14 10 18 10 3 19 1 21 -4 5 -16 22 -13 22 3 0 8 7 17 16 20 8 3 12 2 9 -4
-3 -5 6 -3 21 5 15 7 33 11 42 8 10 -4 13 -2 8 5 -5 8 -2 10 9 6 9 -4 15 -3
13 2 -2 5 0 9 4 9 4 0 14 9 22 20 9 11 16 14 16 8 0 -7 5 -13 11 -13 5 0 8 3
6 8 -3 4 1 13 9 20 9 8 14 9 14 2 0 -16 30 15 31 32 0 7 4 4 9 -7 5 -11 9 -14
9 -7 1 7 6 10 11 7 6 -3 10 2 10 12 0 15 2 16 10 3 7 -12 11 -10 19 10 5 14
10 19 10 13 1 -9 12 -6 37 7 19 11 32 15 28 8 -6 -9 -3 -9 9 1 9 7 23 11 31 8
7 -3 23 1 35 9 16 12 21 12 21 2 0 -8 5 -6 11 5 6 9 15 14 21 11 6 -4 14 0 19
7 7 12 9 11 9 -1 0 -13 1 -13 10 0 7 11 10 12 10 2 0 -10 4 -9 16 2 8 9 20 14
25 11 5 -4 9 -2 9 4 0 5 33 9 80 8 44 -1 81 1 83 5 1 3 13 8 27 10 14 1 28 7
31 11 3 5 9 1 12 -8 4 -9 3 -13 -3 -10 -6 3 -10 1 -10 -4 0 -10 15 -15 23 -8
2 1 10 -3 18 -9 19 -14 61 -12 67 4 2 6 -1 13 -7 13 -26 3 -30 4 -37 11 -12
13 -27 9 -21 -5 3 -8 0 -14 -7 -14 -6 0 -12 9 -12 19 0 10 4 18 7 18 4 0 20 5
36 11 48 20 73 20 67 1 -5 -15 -4 -14 6 1 6 10 16 14 23 10 9 -5 9 -3 0 8 -10
13 -7 15 25 17 20 2 40 8 44 15 6 9 8 8 8 -3 0 -11 2 -12 8 -3 5 7 20 14 35
15 15 1 27 5 27 8 0 3 14 6 30 7 17 1 38 7 48 13 14 8 11 9 -13 5 -28 -5 -28
-5 -6 5 17 8 28 7 39 -2 11 -9 14 -9 9 -1 -4 7 1 14 13 18 11 4 18 10 16 14
-3 4 6 7 20 7 13 0 24 -4 24 -8 0 -4 -5 -8 -12 -8 -6 0 -9 -2 -6 -5 8 -9 38 6
32 16 -11 18 8 30 20 13 7 -9 19 -14 27 -11 10 4 9 6 -3 6 -25 1 -22 21 3 21
11 0 18 4 15 8 -3 5 1 9 9 9 8 0 15 -5 15 -11 0 -7 3 -7 8 1 4 6 29 13 55 14
26 2 47 6 47 10 0 4 27 9 59 11 33 1 57 -1 54 -5 -2 -4 8 -5 24 -1 15 4 30 11
31 16 2 4 7 6 12 3 4 -3 29 4 54 15 25 10 46 16 46 13 0 -4 5 -2 12 5 7 7 21
12 32 12 10 0 16 3 13 6 -4 4 15 20 41 37 26 16 48 33 50 37 1 4 14 5 27 2 15
-2 25 0 25 7 0 6 -5 11 -11 11 -5 0 -7 5 -4 10 4 6 11 8 16 5 5 -4 9 -1 9 5 0
6 4 9 9 6 11 -7 35 20 27 32 -3 5 6 15 19 22 14 7 25 19 25 27 0 7 4 13 10 13
5 0 12 11 16 24 3 14 12 27 20 30 8 3 14 12 14 21 0 8 4 15 9 15 13 0 52 112
58 166 7 72 11 99 13 99 8 0 6 143 -1 174 -21 84 -34 117 -52 129 -15 12 -16
16 -5 30 7 9 9 13 3 10 -14 -8 -32 14 -29 35 1 9 -2 15 -7 11 -11 -6 -58 45
-59 64 0 7 -4 10 -10 7 -5 -3 -10 2 -11 12 0 10 -3 13 -6 6 -3 -10 -8 -10 -19
1 -8 8 -14 20 -14 26 0 6 -4 8 -10 5 -5 -3 -10 -3 -10 2 0 4 -31 24 -68 43
-37 19 -69 38 -70 43 -2 4 -8 5 -13 1 -5 -3 -9 -1 -9 4 0 5 -6 9 -12 10 -7 1
-47 11 -88 22 -41 12 -81 23 -88 24 -8 1 -17 8 -22 15 -5 9 -10 10 -14 2 -8
-12 -146 -16 -146 -3 0 7 -6 8 -114 13 -32 2 -60 8 -62 14 -3 6 -30 9 -70 7
-39 -2 -71 1 -77 7 -6 6 -16 11 -21 11 -6 0 -4 -5 4 -11 12 -9 11 -9 -5 -4
-11 4 -29 9 -40 12 -11 3 -27 7 -35 10 -8 4 -26 8 -39 10 -13 2 -34 11 -47 20
-13 8 -24 11 -24 7 0 -5 -5 -2 -10 6 -6 10 -10 11 -10 3 0 -7 -5 -13 -10 -13
-6 0 -9 5 -8 11 2 5 -25 19 -59 31 -41 13 -63 26 -66 39 -3 11 -10 19 -17 19
-6 0 -8 -5 -4 -12 5 -8 0 -7 -11 2 -11 9 -16 10 -11 3 4 -7 2 -13 -3 -13 -6 0
-11 7 -11 16 0 8 -4 12 -10 9 -5 -3 -10 -1 -10 4 0 6 -5 11 -11 11 -6 0 -17 7
-26 15 -8 8 -19 13 -24 10 -4 -3 -11 6 -15 21 -4 14 -10 21 -13 15 -7 -11 -61
19 -64 35 -1 5 -8 8 -15 6 -9 -2 -11 1 -6 10 6 9 2 9 -12 -2 -10 -8 -16 -11
-12 -6 12 15 -27 47 -48 39 -16 -6 -17 -4 -7 9 15 17 8 28 -19 28 -10 0 -18 3
-18 8 0 4 -16 18 -35 31 -19 13 -33 28 -32 35 1 6 -5 11 -13 10 -9 -1 -20 4
-26 10 -14 16 1 56 21 56 8 0 15 5 15 10 0 6 9 10 19 10 10 0 21 7 25 15 3 8
12 15 21 15 8 0 15 5 15 10 0 6 9 10 20 10 10 0 24 9 30 20 6 11 23 23 38 26
15 4 34 15 42 24 8 10 26 21 39 25 14 4 34 16 45 27 11 10 31 22 45 25 13 3
32 14 42 24 11 11 28 19 39 19 11 0 20 5 20 10 0 6 6 10 14 10 7 0 19 14 26
30 7 17 16 30 20 30 5 0 11 14 15 30 5 24 14 32 36 37 16 3 29 12 29 19 0 8 7
14 15 14 8 0 15 5 15 10 0 6 9 10 20 10 11 0 20 5 20 10 0 6 6 10 13 10 8 0
22 9 32 20 10 11 26 20 37 20 10 0 18 5 18 10 0 6 11 15 25 20 14 5 25 14 25
19 0 5 21 20 48 32 26 13 52 28 59 33 34 30 43 36 52 36 5 0 11 4 13 10 2 5
23 10 48 10 97 2 181 13 195 26 7 8 21 14 29 14 9 0 16 4 16 10 0 5 7 7 15 4
8 -4 15 -1 15 5 0 6 7 11 15 11 8 0 15 4 15 9 0 5 16 15 37 22 20 6 55 31 79
55 23 24 45 44 49 44 3 0 12 6 20 13 64 65 55 334 -15 399 -11 10 -20 23 -20
28 0 4 -14 11 -31 15 -17 4 -33 13 -35 20 -3 8 -28 19 -55 26 -27 7 -49 16
-49 20 0 4 -15 7 -32 7 -18 -1 -68 2 -110 6 -51 5 -78 3 -78 -3 0 -13 -73 -51
-99 -51 -10 0 -21 -6 -24 -14 -3 -8 -22 -20 -43 -26 -21 -7 -47 -21 -58 -31
-61 -55 -80 -69 -92 -69 -8 0 -14 -9 -14 -19 0 -11 -9 -22 -20 -26 -18 -6 -40
-57 -40 -97 0 -26 -11 -48 -24 -48 -6 0 -24 -11 -40 -25 -16 -14 -36 -25 -45
-25 -9 0 -23 -9 -31 -20 -8 -11 -30 -25 -50 -32 -19 -6 -39 -17 -45 -23 -5 -7
-26 -21 -45 -31 -19 -11 -38 -22 -41 -27 -8 -10 -167 -77 -185 -77 -8 0 -14
-4 -14 -9 0 -5 -28 -14 -61 -20 -42 -7 -66 -17 -76 -31 -8 -11 -25 -20 -39
-20 -13 0 -24 -5 -24 -10 0 -6 -22 -20 -50 -32 -27 -12 -50 -27 -50 -34 0 -7
-15 -17 -34 -23 -19 -5 -45 -18 -57 -30 -12 -11 -27 -18 -32 -14 -6 3 -15 0
-21 -8 -6 -8 -28 -23 -49 -34 -21 -11 -46 -27 -56 -36 -9 -9 -30 -19 -46 -23
-16 -4 -34 -15 -41 -24 -11 -15 -14 -15 -26 -2 -7 8 -9 12 -4 8 6 -5 15 -8 20
-8 6 0 1 7 -11 15 -12 8 -30 12 -40 9 -15 -6 -16 -4 -5 7 13 14 17 33 5 26 -5
-3 -14 1 -21 9 -10 11 -10 14 0 14 7 1 3 6 -8 13 -12 7 -20 20 -19 29 2 9 -2
15 -9 12 -6 -2 -17 5 -24 16 -7 12 -8 20 -2 20 5 0 10 5 10 11 0 5 -4 7 -10 4
-5 -3 -10 -1 -10 5 0 6 -4 9 -8 6 -4 -2 -14 5 -22 17 -12 21 -12 21 6 7 18
-14 17 -13 -1 10 -24 30 -37 40 -45 35 -4 -2 -7 2 -7 9 0 8 7 12 16 10 9 -2 3
2 -14 10 -16 8 -24 15 -17 16 16 0 16 30 -1 30 -14 0 -42 48 -38 64 1 5 -6 5
-16 2 -14 -6 -16 -5 -5 5 6 7 12 17 12 21 0 4 -6 7 -12 5 -7 -1 -13 7 -13 18
-1 11 -6 19 -13 18 -6 -2 -9 4 -5 13 3 8 -2 20 -10 27 -9 7 -46 62 -82 122
-37 61 -71 112 -76 113 -5 2 -9 10 -9 18 0 8 -4 14 -10 14 -5 0 -10 7 -10 15
0 8 -4 15 -10 15 -5 0 -10 7 -10 16 0 9 -5 12 -12 8 -8 -5 -9 -2 -5 9 3 10 2
18 -3 18 -6 1 -14 2 -19 3 -15 2 -26 16 -13 16 7 0 12 5 12 11 0 5 -4 7 -10 4
-6 -4 -10 6 -11 22 0 15 -3 22 -6 15 -3 -9 -17 3 -39 34 -25 35 -31 50 -22 56
10 6 9 8 -2 9 -8 1 -18 1 -22 0 -7 -1 -12 23 -9 42 1 5 -3 6 -9 2 -5 -3 -10 3
-10 14 0 12 -4 21 -10 21 -5 0 -10 11 -10 25 0 14 -4 25 -10 25 -5 0 -9 3 -8
8 1 4 -4 32 -11 63 -8 30 -12 74 -10 96 3 28 1 39 -7 36 -18 -7 -38 62 -25 86
6 11 11 26 11 34 0 19 -57 40 -66 25z m3046 -3584 c0 -8 -19 -13 -24 -6 -3 5
1 9 9 9 8 0 15 -2 15 -3z m-1138 -449 c19 0 14 -11 -6 -11 -12 0 -23 6 -23 13
0 6 5 9 11 5 6 -4 14 -7 18 -7z m-982 -296 c0 -11 -29 -7 -55 9 -18 10 -18 11
-2 12 9 0 17 -5 17 -11 0 -5 5 -7 10 -4 6 4 7 12 3 18 -4 7 0 6 10 -2 9 -7 17
-17 17 -22z m-80 11 c0 -5 -4 -10 -10 -10 -5 0 -10 5 -10 10 0 6 5 10 10 10 6
0 10 -4 10 -10z m-485 -230 c-5 -8 -11 -8 -17 -2 -6 6 -7 16 -3 22 5 8 11 8
17 2 6 -6 7 -16 3 -22z m-3680 -370 c3 -5 1 -10 -4 -10 -6 0 -11 5 -11 10 0 6
2 10 4 10 3 0 8 -4 11 -10z m2025 -334 c0 -3 -4 -8 -10 -11 -5 -3 -10 -1 -10
4 0 6 5 11 10 11 6 0 10 -2 10 -4z m-260 -190 c0 -3 -4 -8 -10 -11 -5 -3 -10
-1 -10 4 0 6 5 11 10 11 6 0 10 -2 10 -4z"/>
<path d="M4695 6730 c3 -5 8 -10 11 -10 2 0 4 5 4 10 0 6 -5 10 -11 10 -5 0
-7 -4 -4 -10z"/>
<path d="M4170 6488 c0 -4 7 -8 15 -8 8 0 15 4 15 8 0 5 -7 9 -15 9 -8 0 -15
-4 -15 -9z"/>
<path d="M271 6331 c-10 -6 -10 -10 -1 -16 13 -8 24 -1 19 14 -3 6 -10 7 -18
2z"/>
<path d="M5390 6150 c0 -5 5 -10 10 -10 6 0 10 5 10 10 0 6 -4 10 -10 10 -5 0
-10 -4 -10 -10z"/>
<path d="M6245 5750 c-8 -13 5 -13 25 0 13 8 13 10 -2 10 -9 0 -20 -4 -23 -10z"/>
<path d="M436 5282 c7 -4 14 -16 17 -27 4 -15 5 -14 6 8 1 20 -4 27 -16 27
-12 0 -14 -3 -7 -8z"/>
<path d="M7770 4450 c0 -5 5 -10 10 -10 6 0 10 5 10 10 0 6 -4 10 -10 10 -5 0
-10 -4 -10 -10z"/>
<path d="M14 4428 c-2 -3 1 -10 8 -15 20 -12 48 -14 48 -3 0 6 9 10 20 10 11
0 20 4 20 8 0 10 -90 10 -96 0z m50 -7 c-8 -8 -34 -10 -38 -2 -3 4 6 7 19 7
14 0 22 -2 19 -5z"/>
<path d="M7947 4359 c7 -7 15 -10 18 -7 3 3 -2 9 -12 12 -14 6 -15 5 -6 -5z"/>
<path d="M421 3978 c-7 -11 -8 -17 -2 -13 6 3 11 1 11 -4 0 -6 4 -11 9 -11 6
0 8 10 6 21 -6 30 -9 31 -24 7z"/>
<path d="M7368 3123 c7 -3 16 -2 19 1 4 3 -2 6 -13 5 -11 0 -14 -3 -6 -6z"/>
<path d="M7171 3041 c-6 -4 -9 -15 -6 -24 6 -13 27 -16 63 -8 2 1 -1 9 -6 18
-11 18 -33 25 -51 14z m43 -16 c2 -7 -5 -11 -17 -9 -29 3 -29 3 -23 12 8 13
34 10 40 -3z"/>
<path d="M7135 3030 c-3 -5 -1 -10 5 -10 6 0 8 -5 4 -12 -4 -7 -3 -8 4 -4 6 4
9 13 5 21 -6 18 -10 19 -18 5z"/>
<path d="M6593 2901 c10 -4 18 -10 18 -14 -2 -20 0 -25 15 -31 10 -4 13 -2 8
6 -5 8 -2 9 10 5 10 -4 20 -7 22 -7 3 0 2 -6 -2 -12 -4 -7 -4 -10 1 -6 4 4 15
3 22 -4 18 -14 34 6 25 31 -9 25 -32 35 -87 37 -27 1 -42 -1 -32 -5z m103 -25
c19 -26 5 -44 -15 -20 -9 11 -26 20 -38 21 -33 1 -35 2 -29 11 9 15 68 6 82
-12z"/>
<path d="M6680 2870 c6 -11 13 -20 16 -20 2 0 0 9 -6 20 -6 11 -13 20 -16 20
-2 0 0 -9 6 -20z"/>
<path d="M6385 2840 c-18 -8 -18 -9 -2 -9 12 -1 16 -6 11 -13 -4 -7 -3 -9 1
-5 7 6 17 39 12 36 -1 0 -11 -4 -22 -9z"/>
<path d="M6295 2815 c-40 -14 -40 -14 -5 -8 19 3 42 9 50 14 22 12 1 9 -45 -6z"/>
<path d="M6240 2791 c0 -6 5 -11 11 -11 8 0 8 -4 0 -14 -9 -11 -9 -16 0 -22 8
-4 9 -3 5 4 -4 7 -3 12 3 12 5 0 11 -3 14 -7 2 -5 2 -1 0 7 -3 13 -2 13 9 0
12 -14 78 -23 78 -11 0 13 -39 30 -45 21 -3 -6 -11 -10 -17 -10 -7 0 -6 5 2
15 10 12 8 13 -11 10 -12 -3 -28 0 -36 6 -9 8 -13 8 -13 0z m94 -29 c3 -5 -1
-9 -9 -9 -8 0 -12 4 -9 9 3 4 7 8 9 8 2 0 6 -4 9 -8z"/>
<path d="M6079 2718 c-9 -33 -6 -46 16 -56 21 -10 23 -9 19 6 -5 15 -4 15 9
-1 13 -16 15 -16 21 -2 4 11 2 14 -6 9 -7 -4 -8 -3 -4 4 4 6 14 8 22 5 9 -3
12 -9 7 -12 -4 -3 -9 -13 -11 -21 -1 -11 2 -9 13 4 17 22 2 51 -22 42 -8 -3
-16 1 -20 9 -5 13 -7 13 -18 -2 -7 -10 -11 -22 -8 -27 4 -5 1 -6 -6 -1 -9 5
-10 10 -2 18 14 14 14 27 1 27 -5 0 -10 -1 -11 -2z m45 -26 c3 -5 -1 -9 -9 -9
-8 0 -12 4 -9 9 3 4 7 8 9 8 2 0 6 -4 9 -8z"/>
<path d="M5739 2613 c-1 -4 -1 -12 0 -17 1 -4 -4 -15 -11 -24 -11 -13 -11 -14
2 -7 8 6 27 10 43 10 15 0 27 5 27 10 0 6 -3 10 -7 10 -5 1 -18 6 -30 13 -13
7 -24 9 -24 5z m41 -27 c0 -10 -30 0 -34 11 -4 11 -1 11 14 3 11 -6 20 -12 20
-14z"/>
<path d="M5564 2493 c1 -32 20 -51 32 -32 4 7 10 6 19 -1 10 -9 13 -7 11 7 -2
13 -11 17 -30 16 -25 -2 -26 0 -14 14 7 10 8 14 1 10 -6 -4 -13 -1 -16 5 -2 7
-4 -2 -3 -19z"/>
<path d="M5353 2433 c4 -3 2 -12 -4 -19 -7 -9 -6 -12 3 -10 38 5 52 36 16 36
-12 0 -18 -3 -15 -7z"/>
<path d="M5396 2391 c8 -8 64 -10 64 -2 0 4 -16 7 -35 7 -19 0 -32 -2 -29 -5z"/>
<path d="M5165 2380 c-4 -6 -10 -8 -15 -5 -4 3 -7 -3 -5 -12 2 -10 4 -21 4
-25 1 -4 9 -6 19 -6 9 0 23 -1 31 -3 18 -5 22 27 5 42 -11 9 -14 9 -14 0 0 -7
-5 -9 -10 -6 -6 4 -8 11 -5 16 4 5 4 9 1 9 -3 0 -8 -5 -11 -10z m34 -23 c13 4
13 3 2 -5 -11 -8 -24 -9 -49 -3 -2 1 0 6 4 12 4 7 10 7 16 1 6 -6 18 -8 27 -5z"/>
<path d="M5053 2272 c0 -28 3 -31 20 -26 11 3 17 2 14 -3 -3 -5 10 -9 29 -9
19 0 34 5 34 11 0 14 -68 47 -80 40 -4 -3 -10 1 -12 7 -3 7 -5 -2 -5 -20z m50
-8 c4 -1 12 -2 17 -3 6 0 10 -5 10 -10 0 -10 -19 -9 -37 2 -7 5 -17 5 -23 2
-6 -3 -7 1 -4 9 3 9 11 13 18 9 6 -4 14 -8 19 -9z"/>
<path d="M4884 2189 c1 -31 9 -40 23 -25 4 5 3 6 -4 2 -8 -4 -11 1 -10 14 1
10 7 22 14 24 7 3 10 -1 6 -10 -3 -7 0 -14 7 -14 6 0 9 -4 6 -9 -3 -4 11 -8
32 -7 27 1 36 6 34 16 -2 8 -8 17 -13 18 -5 2 -6 9 -2 15 5 8 2 8 -9 0 -8 -7
-18 -10 -22 -6 -3 4 -19 8 -34 9 -25 2 -28 -1 -28 -27z m78 6 c3 3 10 -1 17
-8 9 -11 6 -14 -12 -13 -29 2 -49 15 -41 27 4 6 10 6 18 0 7 -6 15 -9 18 -6z"/>
<path d="M4379 2054 c0 -5 -2 -16 -4 -24 -2 -11 5 -16 26 -15 16 0 29 4 29 9
0 5 6 4 13 -1 6 -6 24 -9 40 -8 15 1 27 -1 27 -5 0 -4 6 -7 13 -7 7 0 13 11
13 24 0 20 -4 23 -24 18 -13 -3 -21 -2 -18 3 2 4 -16 7 -42 7 -35 -1 -46 -5
-44 -16 1 -9 -3 -7 -13 5 -8 11 -15 16 -16 10z m111 -20 c8 -8 3 -10 -17 -8
-15 1 -29 3 -30 4 -2 1 -7 3 -12 4 -27 3 -16 12 14 11 19 0 39 -5 45 -11z m35
-4 c3 -5 1 -10 -4 -10 -6 0 -11 5 -11 10 0 6 2 10 4 10 3 0 8 -4 11 -10z"/>
<path d="M4187 1953 c6 -15 4 -16 -9 -5 -11 9 -18 10 -23 2 -3 -6 -10 -8 -15
-5 -5 3 -12 0 -16 -7 -4 -7 -4 -10 1 -6 4 4 14 3 21 -3 8 -7 14 -7 19 1 5 7
11 8 19 1 8 -7 12 -5 13 9 1 11 -2 22 -8 25 -5 4 -6 -2 -2 -12z"/>
<path d="M4379 1955 c0 -5 -2 -18 -4 -28 -2 -9 1 -15 6 -11 5 3 9 0 9 -6 0 -6
5 -8 11 -4 8 4 7 9 -2 15 -10 6 -10 9 -2 9 7 0 17 -8 22 -17 6 -11 11 -13 11
-5 0 7 4 11 8 8 4 -2 9 4 9 15 1 16 -3 18 -25 14 -15 -2 -30 1 -34 8 -4 7 -8
8 -9 2z m61 -21 c0 -8 -19 -13 -24 -6 -3 5 1 9 9 9 8 0 15 -2 15 -3z"/>
<path d="M4044 1906 c-9 -10 2 -12 46 -12 32 1 56 4 53 9 -2 4 -8 5 -13 2 -5
-3 -11 -1 -15 5 -4 6 -12 7 -18 3 -15 -10 -31 -11 -37 -2 -3 4 -10 1 -16 -5z"/>
<path d="M3955 1880 c-17 -6 -17 -7 -2 -13 9 -3 17 -2 17 4 0 6 6 7 13 2 21
-13 49 -14 45 -1 -5 14 -44 18 -73 8z"/>
<path d="M4205 1861 c2 -15 7 -17 36 -12 19 2 3 26 -18 27 -14 1 -20 -4 -18
-15z m30 -1 c-3 -5 -12 -10 -18 -10 -7 0 -6 4 3 10 19 12 23 12 15 0z"/>
<path d="M3893 1850 c-35 -21 -36 -51 -2 -45 10 2 19 0 19 -4 0 -5 14 -7 30
-6 17 1 30 0 30 -4 0 -3 11 -6 24 -6 13 0 22 3 20 7 -2 3 1 8 8 10 8 3 8 9 0
24 -6 10 -12 13 -12 7 0 -7 -5 -13 -11 -13 -5 0 -8 4 -5 8 2 4 -4 9 -16 9 -13
1 -18 -3 -14 -12 3 -9 -1 -12 -15 -10 -12 2 -17 0 -13 -7 4 -6 -1 -6 -15 1
-27 15 -27 19 4 16 14 -2 25 1 25 7 0 5 -8 8 -17 7 -33 -3 -37 1 -17 16 28 21
14 18 -23 -5z m4 -24 c0 -8 -6 -12 -15 -9 -11 5 -11 7 0 14 7 5 13 9 14 9 0 0
1 -6 1 -14z m114 -10 c8 4 9 3 5 -4 -10 -17 -43 -15 -43 3 0 11 4 12 13 4 7
-6 19 -7 25 -3z"/>
<path d="M3863 1734 c0 -10 4 -11 14 -3 7 7 13 7 13 2 0 -5 14 -10 30 -10 34
0 32 9 -3 13 -12 1 -22 3 -22 4 0 1 -7 3 -16 5 -9 1 -16 -3 -16 -11z"/>
<path d="M3816 1708 c3 -4 11 -5 19 -1 21 7 19 12 -4 10 -11 0 -18 -5 -15 -9z"/>
<path d="M3699 1641 c9 -6 10 -11 2 -15 -6 -4 -11 -11 -11 -17 0 -12 34 -6 54
10 14 12 16 12 10 -3 -3 -9 -1 -16 6 -16 15 0 8 35 -8 36 -6 1 -13 2 -14 3 -2
2 -14 4 -28 7 -17 3 -21 1 -11 -5z m29 -17 c-1 -5 -9 -9 -16 -10 -10 -2 -11 1
-1 12 12 14 24 13 17 -2z"/>
</g>
</svg>
